Coordinates
version=1
nRows=6
nColumns=46
inDegrees=yes

Units are S.I. units (second, meters, Newtons, ...)
Angles are in degrees.

endheader
time	pelvis_tilt	pelvis_list	pelvis_rotation	pelvis_tx	pelvis_ty	pelvis_tz	bb_angle	bb_tx	bb_ty	bb_tz	hip_flexion_r	hip_adduction_r	hip_rotation_r	knee_angle_r	knee_angle_r_beta	ankle_angle_r	subtalar_angle_r	mtp_angle_r	crank_angle_r	hip_flexion_l	hip_adduction_l	hip_rotation_l	knee_angle_l	knee_angle_l_beta	ankle_angle_l	subtalar_angle_l	mtp_angle_l	crank_angle_l	lumbar_extension	lumbar_bending	lumbar_rotation	arm_flex_r	arm_add_r	arm_rot_r	elbow_flex_r	pro_sup_r	wrist_flex_r	wrist_dev_r	arm_flex_l	arm_add_l	arm_rot_l	elbow_flex_l	pro_sup_l	wrist_flex_l	wrist_dev_l
      2.50000000	    -30.10110281	     10.57809275	     12.00132501	      0.24893679	      1.02441310	     -0.18839303	      0.00000000	      0.50000000	      0.00000000	      0.25000000	     47.68526599	    -17.68375979	     -0.34749059	     34.01741903	      0.59371597	    -19.18045016	    -10.28812711	      0.00000000	      0.00000000	     79.59325616	     -5.54258500	     -4.36598935	    110.58202859	      1.93002049	      2.34409060	      9.53402486	      0.00000000	      0.00000000	    -47.26326834	     -7.22823816	      5.00668396	     30.40367834	    -32.78216586	      2.87566293	    102.88400111	     52.06610622	      0.00000000	      0.00000000	     73.37127054	     -1.08601640	     45.68722659	     55.40951177	     49.83764444	      0.00000000	      0.00000000
      2.50500000	    -30.39621324	     10.61929403	     12.21460353	      0.24924554	      1.02470678	     -0.18832415	      0.00000000	      0.50000000	      0.00000000	      0.25000000	     46.92234528	    -17.92819023	     -0.93308630	     32.87527431	      0.57378178	    -19.91323110	     -9.73539600	      0.00000000	      0.00000000	     80.69009318	     -5.25537720	     -4.31875822	    110.97217127	      1.93682977	      2.73327689	      9.44725473	      0.00000000	      0.00000000	    -47.02773556	     -7.59249699	      4.65223593	     30.15231474	    -32.82770342	      2.91633903	    102.65295738	     52.03171597	      0.00000000	      0.00000000	     73.42863260	     -1.02776595	     45.83047037	     55.44143304	     49.85386163	      0.00000000	      0.00000000
      2.51000000	    -30.43604812	     10.40687268	     12.56346747	      0.24978561	      1.02568773	     -0.18852440	      0.00000000	      0.50000000	      0.00000000	      0.25000000	     45.71044816	    -18.07592130	     -2.05829128	     31.53524428	      0.55039384	    -21.14946398	     -9.42508314	      0.00000000	      0.00000000	     81.59730792	     -4.85006181	     -3.98849456	    111.31119697	      1.94274688	      3.04441883	      9.19405700	      0.00000000	      0.00000000	    -46.99784072	     -7.53156013	      4.40139533	     30.01475953	    -32.86374713	      2.95534344	    101.81085043	     51.88682900	      0.00000000	      0.00000000	     73.42496299	     -1.07491351	     46.25289624	     55.48426944	     49.89094882	      0.00000000	      0.00000000
      2.51500000	    -30.76050923	     10.28330535	     12.81269498	      0.24995657	      1.02639604	     -0.18848483	      0.00000000	      0.50000000	      0.00000000	      0.25000000	     44.94283162	    -18.18500750	     -2.78243000	     30.33422091	      0.52943203	    -22.08308779	     -8.91830535	      0.00000000	      0.00000000	     82.71092129	     -4.51798013	     -3.83588896	    111.52328445	      1.94644851	      3.41915560	      8.99591902	      0.00000000	      0.00000000	    -46.76621093	     -7.70586208	      4.06424537	     29.87334080	    -32.79670892	      3.02497307	    101.46320702	     51.83405443	      0.00000000	      0.00000000	     73.48879020	     -1.09456971	     46.35612742	     55.53510335	     49.90385970	      0.00000000	      0.00000000
      2.52000000	    -30.76335601	      9.93395919	     13.21208972	      0.25018830	      1.02775617	     -0.18857469	      0.00000000	      0.50000000	      0.00000000	      0.25000000	     43.66522970	    -18.16828215	     -3.98121269	     28.93343800	      0.50498376	    -23.34925014	     -8.75192348	      0.00000000	      0.00000000	     83.58929546	     -4.04896613	     -3.34783810	    111.65203840	      1.94869569	      3.62035737	      8.77858799	      0.00000000	      0.00000000	    -46.77779141	     -7.44786756	      3.63091928	     30.30635480	    -32.43171054	      3.21247762	    100.46772766	     51.67121973	      0.00000000	      0.00000000	     73.51904701	     -1.39704587	     46.60003841	     55.77026928	     49.94833088	      0.00000000	      0.00000000
      2.52500000	    -31.08097548	      9.54142854	     13.48685155	      0.25049041	      1.02880749	     -0.18868944	      0.00000000	      0.50000000	      0.00000000	      0.25000000	     42.81243475	    -18.02925034	     -4.95780458	     27.58133189	      0.48138505	    -24.66227984	     -8.35596758	      0.00000000	      0.00000000	     84.68695199	     -3.72737727	     -2.98181168	    111.69300436	      1.94941068	      3.99182008	      8.59585044	      0.00000000	      0.00000000	    -46.50194534	     -7.32465065	      3.15581316	     30.73015442	    -31.91915501	      3.61621458	     99.55919032	     51.54560895	      0.00000000	      0.00000000	     73.37751699	     -1.85047575	     46.68131704	     56.22413145	     50.01163622	      0.00000000	      0.00000000
